<svg width="89" height="40" viewBox="0 0 89 40" fill="none" xmlns="http://www.w3.org/2000/svg">
<path d="M30.9597 27.8917C31.2065 28.0373 31.2814 28.3605 31.1152 28.5939C29.1893 31.2993 26.4315 33.3907 23.2062 34.5831C19.8102 35.8387 16.076 36.0311 12.5551 35.1318C9.03426 34.2326 5.91356 32.2895 3.65406 29.5895C1.39455 26.8896 0.116083 23.576 0.00752927 20.1383C-0.101024 16.7007 0.966095 13.3212 3.05123 10.4993C5.13637 7.67742 8.12893 5.5627 11.5868 4.46758C15.0447 3.37246 18.7845 3.35504 22.2537 4.41788C25.5486 5.42736 28.4336 7.36049 30.5268 9.95313C30.7071 10.1765 30.6514 10.5043 30.4131 10.6643L26.2545 13.4537C26.0341 13.6015 25.7376 13.5506 25.5683 13.3463C24.2366 11.7401 22.4245 10.5417 20.361 9.90947C18.1416 9.22953 15.7491 9.24068 13.537 9.94127C11.3248 10.6419 9.41035 11.9947 8.0764 13.8C6.74245 15.6053 6.05977 17.7673 6.12922 19.9665C6.19866 22.1657 7.01655 24.2855 8.46205 26.0128C9.90755 27.7401 11.904 28.9832 14.1564 29.5585C16.4089 30.1337 18.7978 30.0107 20.9704 29.2074C22.9894 28.461 24.722 27.1638 25.9499 25.4869C26.107 25.2724 26.4006 25.2038 26.6296 25.3388L30.9597 27.8917Z" fill="#FF971D"/>
<path d="M14.209 0.5C14.209 0.223858 14.4328 0 14.709 0H19.7985C20.0747 0 20.2985 0.223858 20.2985 0.5V7H14.209V0.5Z" fill="#FF971D"/>
<path d="M14.209 33H20.2985V39.5C20.2985 39.7761 20.0747 40 19.7985 40H14.709C14.4328 40 14.209 39.7761 14.209 39.5V33Z" fill="#FF971D"/>
<path d="M26.5088 18.6621C26.5088 17.6139 26.7671 16.5994 27.2837 15.6187C27.8003 14.6379 28.5303 13.8892 29.4736 13.3726C30.4245 12.856 31.4839 12.5977 32.6519 12.5977C34.4562 12.5977 35.9349 13.1854 37.0879 14.3608C38.2409 15.5288 38.8174 17.0075 38.8174 18.7969C38.8174 20.6012 38.2334 22.0986 37.0654 23.2891C35.9049 24.472 34.4412 25.0635 32.6743 25.0635C31.5812 25.0635 30.5368 24.8164 29.541 24.3223C28.5527 23.8281 27.8003 23.1056 27.2837 22.1548C26.7671 21.1965 26.5088 20.0322 26.5088 18.6621ZM29.7432 18.8306C29.7432 20.0135 30.0239 20.9194 30.5854 21.5483C31.147 22.1772 31.8395 22.4917 32.6631 22.4917C33.4867 22.4917 34.1755 22.1772 34.7295 21.5483C35.291 20.9194 35.5718 20.006 35.5718 18.8081C35.5718 17.6401 35.291 16.7417 34.7295 16.1128C34.1755 15.4839 33.4867 15.1694 32.6631 15.1694C31.8395 15.1694 31.147 15.4839 30.5854 16.1128C30.0239 16.7417 29.7432 17.6476 29.7432 18.8306ZM41.2993 11.25V8.33008H44.4551V11.25H41.2993ZM41.2993 24.7939V12.8672H44.4551V24.7939H41.2993ZM58.5493 24.7939H55.3936V18.707C55.3936 17.4193 55.3262 16.5882 55.1914 16.2139C55.0566 15.832 54.8358 15.5363 54.5288 15.3267C54.2293 15.117 53.8662 15.0122 53.4395 15.0122C52.8929 15.0122 52.4025 15.1619 51.9683 15.4614C51.534 15.7609 51.2345 16.1577 51.0698 16.6519C50.9126 17.146 50.834 18.0594 50.834 19.3921V24.7939H47.6782V12.8672H50.6094V14.6191C51.6501 13.2715 52.9603 12.5977 54.54 12.5977C55.2363 12.5977 55.8727 12.7249 56.4492 12.9795C57.0257 13.2266 57.46 13.5448 57.752 13.9341C58.0514 14.3234 58.2573 14.7651 58.3696 15.2593C58.4894 15.7534 58.5493 16.4609 58.5493 17.3818V24.7939ZM68.668 20.998L71.8125 21.5259C71.4082 22.6789 70.7681 23.5586 69.8921 24.165C69.0236 24.764 67.9342 25.0635 66.624 25.0635C64.5501 25.0635 63.0153 24.3859 62.0195 23.0308C61.2334 21.9451 60.8403 20.575 60.8403 18.9204C60.8403 16.9438 61.3569 15.3978 62.3901 14.2822C63.4233 13.1592 64.7298 12.5977 66.3096 12.5977C68.084 12.5977 69.484 13.1854 70.5098 14.3608C71.5355 15.5288 72.0259 17.3219 71.981 19.7402H64.0747C64.0972 20.6761 64.3517 21.4061 64.8384 21.9302C65.325 22.4468 65.9315 22.7051 66.6577 22.7051C67.1519 22.7051 67.5674 22.5703 67.9043 22.3008C68.2412 22.0312 68.4958 21.597 68.668 20.998ZM68.8477 17.8086C68.8252 16.8952 68.5894 16.2026 68.1401 15.731C67.6909 15.2518 67.1444 15.0122 66.5005 15.0122C65.8117 15.0122 65.2427 15.263 64.7935 15.7646C64.3442 16.2663 64.1234 16.9476 64.1309 17.8086H68.8477ZM72.9131 24.7939L78.5396 16.2026L73.4409 8.33008H77.3267L80.6284 13.6196L83.8628 8.33008H87.7148L82.5938 16.3262L88.2202 24.7939H84.2109L80.561 19.1001L76.8999 24.7939H72.9131Z" fill="white"/>
</svg>
